/* XPM */
static char *croce_imresizer1756302662[] = {
/* columns rows colors chars-per-pixel */
"32 32 225 2 ",
"   c #7E6105",
".  c #856510",
"X  c #82792C",
"o  c #837934",
"O  c #887E36",
"+  c #87763E",
"@  c #897948",
"#  c #8D833B",
"$  c #9F874B",
"%  c #A4874D",
"&  c #A19A54",
"*  c #A7985D",
"=  c #A8995E",
"-  c #A99A5F",
";  c #BB905B",
":  c #978F60",
">  c #BF8E63",
",  c #A39564",
"<  c #A89366",
"1  c #A49B64",
"2  c #AB9C61",
"3  c #AD9E63",
"4  c #A1916D",
"5  c #B99F6E",
"6  c #B09B7C",
"7  c #AFA065",
"8  c #B0A166",
"9  c #B1A267",
"0  c #B1A86F",
"q  c #ABA277",
"w  c #AEA376",
"e  c #ABA27B",
"r  c #BAA276",
"t  c #B7AA75",
"y  c #B8AB76",
"u  c #B9AC77",
"i  c #B4A57E",
"p  c #B5AA7C",
"a  c #BBAE79",
"s  c #B8AE7B",
"d  c #BCAF7A",
"f  c #BDB07B",
"g  c #AD9D84",
"h  c #AFA685",
"j  c #BFA785",
"k  c #B9B089",
"l  c #BAAE94",
"z  c #BEB598",
"x  c #C9AC8A",
"c  c #C2B497",
"v  c #C0B798",
"b  c #D1BE93",
"n  c #D5B79D",
"m  c #DAB49D",
"M  c #DEB49C",
"N  c #D6B9A9",
"B  c #DBC596",
"V  c #D9C499",
"C  c #DCC69D",
"Z  c #CDC2B0",
"A  c #DDC9BE",
"S  c #E6DFCC",
"D  c #EDDAD4",
"F  c #EAE3D3",
"G  c #EFEDD8",
"H  c #F3EFD6",
"J  c #F1EAD8",
"K  c #F4ECE1",
"L  c #FFF6E5",
"P  c #F1FBE0",
"I  c #F5F9E2",
"U  c #F8FFE3",
"Y  c #FFF8E5",
"T  c #FAFCE6",
"R  c #F5F6EE",
"E  c #FEF6EB",
"W  c #FFF2ED",
"Q  c #FFF3EF",
"!  c #F4F8E9",
"~  c #F6FAEB",
"^  c #F6F8ED",
"/  c #F6FAEC",
"(  c #F7FBED",
")  c #FFF9EA",
"_  c #FBFFE8",
"`  c #FEFFE8",
"'  c #FFFFE8",
"]  c #FFFFEA",
"[  c #FFF8EC",
"{  c #FFF8ED",
"}  c #FFFAEE",
"|  c #FFFFEC",
" . c #FFFEED",
".. c #FEFFEE",
"X. c #FEFFEF",
"o. c #FFFFEF",
"O. c #F1F6F2",
"+. c #F3F5F4",
"@. c #F5F7F6",
"#. c #FFF6F0",
"$. c #FFF7F0",
"%. c #FFF5F2",
"&. c #FFF6F4",
"*. c #F7F9F4",
"=. c #FAFBF3",
"-. c #FFF9F0",
";. c #FFF8F1",
":. c #F9FCF1",
">. c #FAFEF0",
",. c #FAFFF2",
"<. c #FBFEF3",
"1. c #FBFFF3",
"2. c #FCFFF3",
"3. c #FEFFF3",
"4. c #FBFAF5",
"5. c #FFF9F4",
"6. c #FCFBF6",
"7. c #FBFCF4",
"8. c #FBFCF7",
"9. c #FCFCF4",
"0. c #FFFCF4",
"q. c #FFFDF4",
"w. c #FCFFF4",
"e. c #FDFFF4",
"r. c #FDFFF5",
"t. c #FEFFF4",
"y. c #FFFFF4",
"u. c #FFFDF6",
"i. c #FEFEF6",
"p. c #FEFFF6",
"a. c #FFFFF6",
"s. c #FEFFF7",
"d. c #FFFFF7",
"f. c #F7F7F9",
"g. c #F4F5FA",
"h. c #F6F6FE",
"j. c #FBF2FF",
"k. c #F8F7FC",
"l. c #FBF6FC",
"z. c #F9F6FF",
"x. c #F9F7FF",
"c. c #FFF4FF",
"v. c #FEF6FF",
"b. c #FFF6FF",
"n. c #FFF7FF",
"m. c #F7F9F8",
"M. c #F7FBFF",
"N. c #F9F9FB",
"B. c #FAF8FB",
"V. c #FBFDF8",
"C. c #FBFFFB",
"Z. c #FCFDF8",
"A. c #FFFDF8",
"S. c #FEFDF9",
"D. c #FCFFF8",
"F. c #FDFEF9",
"G. c #FFFEF8",
"H. c #FFFFF8",
"J. c #FFFEF9",
"K. c #FEFFF9",
"L. c #FCFCFA",
"P. c #FDFDFB",
"I. c #FFFCFA",
"U. c #FCFFFA",
"Y. c #FCFFFB",
"T. c #FFFEFA",
"R. c #FEFFFA",
"E. c #FFFFFA",
"W. c #FFFEFB",
"Q. c #FEFFFB",
"!. c #FFFFFB",
"~. c #F8F9FD",
"^. c #FAF8FD",
"/. c #F9FAFC",
"(. c #FAFBFD",
"). c GhostWhite",
"_. c #F9F9FF",
"`. c #FBF8FF",
"'. c #F9FBFF",
"]. c #FAFAFF",
"[. c #FBFAFF",
"{. c #FAFBFF",
"}. c #FCF9FF",
"|. c #FFF8FF",
" X c #FFF9FF",
".X c #FCFAFF",
"XX c #FDFAFF",
"oX c #FCFBFF",
"OX c #FDFBFF",
"+X c #FFFAFF",
"@X c #FFFBFF",
"#X c #F9FCFF",
"$X c #F9FDFF",
"%X c #FBFCFE",
"&X c #FBFCFF",
"*X c #FBFFFF",
"=X c gray99",
"-X c #FDFDFD",
";X c #FFFCFC",
":X c #FEFCFD",
">X c #FFFDFD",
",X c #FCFEFD",
"<X c #FCFFFD",
"1X c #FEFEFC",
"2X c #FFFEFC",
"3X c #FFFEFD",
"4X c #FEFFFD",
"5X c #FFFFFD",
"6X c #FCFCFE",
"7X c #FDFCFF",
"8X c #FCFDFF",
"9X c #FFFDFE",
"0X c #FEFCFF",
"qX c #FFFCFF",
"wX c #FEFDFF",
"eX c #FFFDFF",
"rX c #FDFFFE",
"tX c #FCFEFF",
"yX c #FDFEFF",
"uX c #FCFFFF",
"iX c #FEFEFE",
"pX c #FEFEFF",
"aX c #FFFEFF",
"sX c #FEFFFF",
"dX c white",
/* pixels */
"dXdXdXdXdXdXdXdXx.dXU.U.XXdX%XD.%XdXy.U.dXdXXXdXdXdXdXdXdXdXdXdX",
"dXdXdXdXdXdXdXdXdXdXU.0.dXdX`.0.M.M.U.U.dXXX`.dXdXdXdXdXdXdXdXdX",
"dXdXdXdXdXdXdXdXdXU.=.8.XXdXdXI.XXdXI.dXdXI.I.dXdXdXdXdXdXdXdXdX",
"dXdXdXdXdXdXdXdXdXdXy.dXXXXXdXU.U.dXB.B.U.U.U.U.dXdXdXdXdXdXdXdX",
"dXdXdXdXdXdXdXdXdXU.U.dXXXx.dXK J U.XX`.U.y.U.dXdXdXdXdXdXdXdXdX",
"dXdXdXdXdXdXdXdXXXdX=.dXdXdXE Z c E XXdXD.^ U.dXdXdXdXdXdXdXdXdX",
"dXdXdXdXdXdXdXdXXXdXm.%XdXdXE l q L dXdX%X^ U.XXdXdXdXdXdXdXdXdX",
"dXdXdXdXdXdXdXdXXXdX%XdX`.U. .c s ] dXx.U.y.dXv.dXdXdXdXdXdXdXdX",
"dXdXdXdXdXdXdXdXdXXXD b B n M > ; m N C V A XXdXdXdXdXdXdXdXdXdX",
"dXdXdXdXdXdXdXdX_ G k O X + % .   % @ o # q H ] dXdXdXdXdXdXdXdX",
"dXdXdXdXdXdXdXdX%XXXXX0.2.XXQ x r Q XXU.0.c.XX`.dXdXdXdXdXdXdXdX",
"dXdXdXdXdXdXdXdXU.XXXXdXXXXX$.i , E v.XXI.XXdX%XdXdXdXdXdXdXdXdX",
"dXdXdXdXdXdXdXdXU R I. .2.U.] 0 & ] dXy. .y.4.P dXdXdXdXdXdXdXdX",
"dXdXdXdXdXdXdXdXdXXXXXdX`.`.v.g 4 XXx.M.`.XXdX%XdXdXdXdXdXdXdXdX",
"dXdXdXdXdXdXdXdX^ x.dXy.D.dX&.6 < 0.XXdXy.dX`.O.dXdXdXdXdXdXdXdX",
"dXdXdXdXdXdXdXdXy.dXU.T  .dX$.j 5 [ x.2.I U.dXD.dXdXdXdXdXdXdXdX",
"dXdXdXdXdXdXdXdXdXU.XXdX=.dXXXf 3 XXXX2.dXXXU.dXdXdXdXdXdXdXdXdX",
"dXdXdXdXdXdXdXdXdXy.XXU.2.dXXXf 9 XXXX2.dXdXU.dXdXdXdXdXdXdXdXdX",
"dXdXdXdXdXdXdXdXdXy.dXdX=.dXXXd 9 XXdX=.dXXXU.dXdXdXdXdXdXdXdXdX",
"dXdXdXdXdXdXdXdXdXy.dXdX=.dXXXs 3 XXdX=.dXXXU.XXdXdXdXdXdXdXdXdX",
"dXdXdXdXdXdXdXdXdX8.dXdX=.dXXXu 3 XXXXy.dXXXU.dXdXdXdXdXdXdXdXdX",
"dXdXdXdXdXdXdXdXdXy.dXdX=.dXv.u = XXdX2.dXXXU.dXdXdXdXdXdXdXdXdX",
"dXdXdXdXdXdXdXdXdX0.XXdX2.dXv.t = XXXX2.dXXXU.dXdXdXdXdXdXdXdXdX",
"dXdXdXdXdXdXdXdX%Xy.dXdX=.dXv.t * XXdX2.dXXXU.dXdXdXdXdXdXdXdXdX",
"dXdXdXdXdXdXdXdXc.dX2.D.g.dX] p 1 ] dX`.dX2.U.XXdXdXdXdXdXdXdXdX",
"dXdXdXdXdXdXdXdXv.dX! y.dXdXE e : L dX%XdX=.0.XXdXdXdXdXdXdXdXdX",
"dXdXdXdXdXdXdXdXXXU.! U.dXdX$.z h E dXdX%X=.4.dXdXdXdXdXdXdXdXdX",
"dXdXdXdXdXdXdXdXdXU.2.U.h.XXU.F S y.`.`.dXy.y.I.dXdXdXdXdXdXdXdX",
"dXdXdXdXdXdXdXdXU.U.U.dXf.h.dXy.y.dX`.N.dXU.U.0.dXdXdXdXdXdXdXdX",
"dXdXdXdXdXdXdXdXU.U.dXdXdXdXdXdXdX`.dXD.dXU.dXU.dXdXdXdXdXdXdXdX",
"dXdXdXdXdXdXdXdXdX`.dXdXU.U.%X%X`.+.U.dXdX`.dXU.dXdXdXdXdXdXdXdX",
"dXdXdXdXdXdXdXdXdXXXdXdX0.U.dX%XdX+.dX0.dXXXdXXXdXdXdXdXdXdXdXdX"
};
