/* XPM */
static char *result[] = {
/* columns rows colors chars-per-pixel */
"32 32 168 2 ",
"   c #774625",
".  c #804926",
"X  c #8A4F2C",
"o  c #865129",
"O  c #85532A",
"+  c #8A5631",
"@  c #9B5E36",
"#  c #9F663B",
"$  c #A1633C",
"%  c #A1663D",
"&  c #AC6A3F",
"*  c #9A7956",
"=  c #AD6C42",
"-  c #AF7145",
";  c #A67B46",
":  c #BA794B",
">  c #A9804A",
",  c #B38A50",
"<  c #BC9859",
"1  c #9F8D6E",
"2  c #B29168",
"3  c #A49172",
"4  c #AE9B7B",
"5  c #B19E7C",
"6  c #B09F7F",
"7  c #B19F7F",
"8  c #B2A07C",
"9  c #C68050",
"0  c #C68453",
"q  c #C48455",
"w  c #C78555",
"e  c #C88351",
"r  c #C98655",
"t  c #CC8A57",
"y  c #D08B57",
"u  c #D08E5A",
"i  c #D58E5B",
"p  c #CD9A5F",
"a  c #D7915B",
"s  c #D7915C",
"d  c #D7925D",
"f  c #D39264",
"g  c #D89561",
"h  c #D89663",
"j  c #D99766",
"k  c #D79868",
"l  c #D79969",
"z  c #D6996D",
"x  c #D79A6D",
"c  c #D8996A",
"v  c #C4A060",
"b  c #C7A363",
"n  c #CAA864",
"m  c #CEAE67",
"M  c #D6A06E",
"N  c #D5AE69",
"B  c #D7A177",
"V  c #D8A37B",
"C  c #DCA779",
"Z  c #DBBB73",
"A  c #B9A683",
"S  c #D3AF86",
"D  c #DFB98C",
"F  c #C7B491",
"G  c #C7BA96",
"H  c #CCB892",
"J  c #C5B998",
"K  c #CABD9A",
"L  c #E0BE91",
"P  c #E0BE92",
"I  c #E0BF93",
"U  c #D1C39F",
"Y  c #DCC399",
"T  c #EED081",
"R  c #EFD281",
"E  c #EED182",
"W  c #F5DB87",
"Q  c #F6DA86",
"!  c #F7DA86",
"~  c #F7DA87",
"^  c #F4DB89",
"/  c #F6DB88",
"(  c #F7DB8A",
")  c #F4DC8C",
"_  c #F5DD8F",
"`  c #E1C397",
"'  c #E0C59A",
"]  c #E1C79E",
"[  c #E2CA9D",
"{  c #F5DC91",
"}  c #F6DE97",
"|  c #F5DF99",
" . c #F3E09E",
".. c #CEC5A8",
"X. c #D4C7A0",
"o. c #D0C6A7",
"O. c #D6C8A2",
"+. c #D7C9A2",
"@. c #D6C8A3",
"#. c #D7C9A4",
"$. c #D4C9A7",
"%. c #D8CAA3",
"&. c #D8CAA4",
"*. c #D8CBA4",
"=. c #D9CBA4",
"-. c #D9CAA5",
";. c #DACBA5",
":. c #DACAA6",
">. c #DACBA7",
",. c #D9CCA4",
"<. c #D9CCA5",
"1. c #DACCA5",
"2. c #DBCDA5",
"3. c #DACCA6",
"4. c #DBCCA6",
"5. c #DBCDA6",
"6. c #DACCA7",
"7. c #DBCEA6",
"8. c #DCCCA6",
"9. c #DCCEA6",
"0. c #DDCEA6",
"q. c #DDCEA7",
"w. c #DECEA7",
"e. c #D2C7A8",
"r. c #D0C5AA",
"t. c #D5CAA8",
"y. c #D4C9AA",
"u. c #D9CEAD",
"i. c #DBCFAF",
"p. c #DFD0A8",
"a. c #DFD1A8",
"s. c #DED0AB",
"d. c #DED1AC",
"f. c #D4CBB2",
"g. c #E2C9A4",
"h. c #E0D1A8",
"j. c #E1D0AB",
"k. c #E1D3AB",
"l. c #E2D3AA",
"z. c #E4D3A9",
"x. c #E5D3AB",
"c. c #E3D4A9",
"v. c #E3D4AA",
"b. c #E2D4AB",
"n. c #E3D4AB",
"m. c #E4D4AB",
"M. c #E4D3AD",
"N. c #E2D4AC",
"B. c #E3D4AC",
"V. c #E3D5AC",
"C. c #E3D4AD",
"Z. c #E3D4AE",
"A. c #E4D4AC",
"S. c #E4D6AE",
"D. c #E2D6B1",
"F. c #E1D5B2",
"G. c #E5D6B2",
"H. c #E4D7B2",
"J. c #E4D7B3",
"K. c #E4D9B4",
"L. c #E4D8B5",
"P. c #E6D9B7",
"I. c #E4DAB7",
"U. c #E5DAB8",
"Y. c #E4DBB9",
"T. c #E6D9BA",
"R. c #E6DCBB",
"E. c None",
/* pixels */
"E.E.E.E.E.E.E.E.E.E.E.E.E.E.E.E.E.E.E.E.E.E.E.E.E.E.E.E.E.E.E.E.",
"E.E.E.E.E.E.E.E.E.E.E.E.E.E.E.E.E.E.E.E.E.E.E.E.E.E.E.E.E.E.E.E.",
"E.E.E.E.E.E.E.E.E.E.E.E.E.E.| ) ^ | E.E.E.E.E.E.E.E.E.E.E.E.E.E.",
"E.E.E.E.E.E.E.E.E.E.E.E.E.( T E < b / E.E.E.E.E.E.E.E.E.E.E.E.E.",
"E.E.E.E.E.E.E.E.E.E.E.E.} R O # % o Z _ E.E.E.E.E.E.E.E.E.E.E.E.",
"E.E.E.E.E.E.E.E.E.E.E.E.W m : r y t , ~ E.E.E.E.E.E.E.E.E.E.E.E.",
"E.E.E.E.E.E.E.E.E.E.E.E.Q N i q w u p ! E.E.E.E.E.E.E.E.E.E.E.E.",
"E.E.E.E.E.E.E.E.E.E.E.E.{ v - e 9 0 ; ^ E.E.E.E.E.E.E.E.E.E.E.E.",
"E.E.E.E.E.E.E.E.E.E.E.E.E.n . & = X >  .E.E.E.E.E.E.E.E.E.E.E.E.",
"E.E.E.E.E.E.E.E.E.E.E.E.E.2   $ @ + * E.E.E.E.E.E.E.E.E.E.E.E.E.",
"E.E.E.E.x h E.E.E.E.E.R.K.Y g a s d D T.Y.E.E.E.E.E.j z E.E.E.E.",
"E.E.E.E.E.E.c M v.B.v.M.m.b.[ P L ' z.c.x.m.v.v.C l E.E.E.E.E.E.",
"E.E.E.E.E.E.E.F A.v.m.S.E.P.n.n.n.h.G.E.H.n.N.n.H E.E.E.E.E.E.E.",
"E.E.E.E.E.E.E.J n.Z.U.E.E.E.B.n.B.0.u.E.E.E.D.v.G E.E.E.E.E.E.E.",
"E.E.E.E.E.E.E.E.E.E.E.E.E.E.j.a.;.-.e.E.E.E.E.E.f.E.E.E.E.E.E.E.",
"E.E.E.E.E.E.E.E.E.E.E.E.E.E.A 5 8 3 E.E.E.E.E.E.E.E.E.E.E.E.E.E.",
"E.E.E.E.E.E.E.E.E.E.E.E.E.E.6 7 4 1 E.E.E.E.E.E.E.E.E.E.E.E.E.E.",
"E.E.E.E.E.E.E.E.E.E.E.E.E.E.6.U &.K ..E.E.E.E.E.E.E.E.E.E.E.E.E.",
"E.E.E.E.E.E.E.E.E.E.E.E.E.E.7.X.a.O.$.E.E.E.E.E.E.E.E.E.E.E.E.E.",
"E.E.E.E.E.E.E.E.E.E.E.E.E.E.%.,.p.+.F.E.E.E.E.E.E.E.E.E.E.E.E.E.",
"E.E.E.E.E.E.E.E.E.E.E.E.E.r.*.1.p.9.s.E.E.E.E.E.E.E.E.E.E.E.E.E.",
"E.E.E.E.E.E.E.E.E.E.E.E.E.o.1.1.w.l.<.E.E.E.E.E.E.E.E.E.E.E.E.E.",
"E.E.E.E.E.E.E.E.E.E.E.E.E.y.3.5.q.n.2.E.E.E.E.E.E.E.E.E.E.E.E.E.",
"E.E.E.E.E.E.E.E.E.E.E.E.E.t.>.h.8.v.n.I.E.E.E.E.E.E.E.E.E.E.E.E.",
"E.E.E.E.E.E.E.E.E.E.E.E.E.d.:.B.4.v.B.L.E.E.E.E.E.E.E.E.E.E.E.E.",
"E.E.E.E.E.E.E.E.E.E.E.E.E.B.#.V.=.v.B.J.E.E.E.E.E.E.E.E.E.E.E.E.",
"E.E.E.E.E.E.E.E.E.E.E.E.E.v.@.V.%.v.B.C.E.E.E.E.E.E.E.E.E.E.E.E.",
"E.E.E.E.E.E.E.E.E.E.E.E.E.v.=.k.i.g.` B.E.E.E.E.E.E.E.E.E.E.E.E.",
"E.E.E.E.E.E.E.E.E.E.E.E.E.] I S E.E.k E.E.E.E.E.E.E.E.E.E.E.E.E.",
"E.E.E.E.E.E.E.E.E.E.E.E.E.V B E.E.E.f E.E.E.E.E.E.E.E.E.E.E.E.E.",
"E.E.E.E.E.E.E.E.E.E.E.E.E.E.E.E.E.E.E.E.E.E.E.E.E.E.E.E.E.E.E.E.",
"E.E.E.E.E.E.E.E.E.E.E.E.E.E.E.E.E.E.E.E.E.E.E.E.E.E.E.E.E.E.E.E."
};
