/* XPM */
static char *grotta_imresizer1756302776[] = {
/* columns rows colors chars-per-pixel */
"32 32 239 2 ",
"   c #0B0302",
".  c #050A08",
"X  c #120907",
"o  c #0A130A",
"O  c #061606",
"+  c #081817",
"@  c #131D15",
"#  c #141C18",
"$  c #161716",
"%  c #0D1010",
"&  c #231C14",
"*  c #16231B",
"=  c #1B241D",
"-  c #16281A",
";  c #122311",
":  c #27261C",
">  c #32381E",
",  c #1D1E20",
"<  c #1B2424",
"1  c #1C2F2B",
"2  c #182A24",
"3  c #1A3528",
"4  c #172E34",
"5  c #093439",
"6  c #1C3E3B",
"7  c #1C3533",
"8  c #0E2930",
"9  c #222B25",
"0  c #262A28",
"q  c #352E2B",
"w  c #25312E",
"e  c #2B312D",
"r  c #273B2B",
"t  c #34342B",
"y  c #353628",
"u  c #243432",
"i  c #2A3533",
"p  c #2C3C34",
"a  c #273B38",
"s  c #353A34",
"d  c #3B3B34",
"f  c #323E3B",
"g  c #383734",
"h  c #47382B",
"j  c #463B3A",
"k  c #1C442C",
"l  c #27472A",
"z  c #24443C",
"x  c #2D4734",
"c  c #35453C",
"v  c #3B433E",
"b  c #344835",
"n  c #37553B",
"m  c #44443C",
"M  c #4C453C",
"N  c #4B483C",
"B  c #444839",
"V  c #574A3A",
"C  c #4B4830",
"Z  c #184C4A",
"A  c #154856",
"S  c #175457",
"D  c #0D4651",
"F  c #264849",
"G  c #3B4845",
"H  c #375247",
"J  c #264D57",
"K  c #354950",
"L  c #23515A",
"P  c #345B56",
"I  c #25605E",
"U  c #185269",
"Y  c #2F5867",
"T  c #1F6376",
"R  c #3B6568",
"E  c #2D6578",
"W  c #346C75",
"Q  c #454C44",
"!  c #4B4C44",
"~  c #464B49",
"^  c #554A45",
"/  c #4C534C",
"(  c #485648",
")  c #57554A",
"_  c #485A56",
"`  c #545C54",
"'  c #5A5B54",
"]  c #595655",
"[  c #645648",
"{  c #685A51",
"}  c #624E47",
"|  c #4C6346",
" . c #4D645F",
".. c #5A635B",
"X. c #566557",
"o. c #506046",
"O. c #686759",
"+. c #726257",
"@. c #68614E",
"#. c #585D61",
"$. c #425E62",
"%. c #47666F",
"&. c #5B6667",
"*. c #577369",
"=. c #596C71",
"-. c #496572",
";. c #626E6C",
":. c #686966",
">. c #776C64",
",. c #67726C",
"<. c #6A7366",
"1. c #75746C",
"2. c #7B736B",
"3. c #7B796A",
"4. c #687375",
"5. c #737A75",
"6. c #7B7C75",
"7. c #757776",
"8. c #656F70",
"9. c #83755D",
"0. c #887A6C",
"q. c #857B76",
"w. c #78867A",
"e. c #678772",
"r. c #8B857B",
"t. c #928978",
"y. c #82846F",
"u. c #2B6C88",
"i. c #4D7985",
"p. c #637A81",
"a. c #747C8D",
"s. c #648387",
"d. c #7A8486",
"f. c #688D97",
"g. c #64929A",
"h. c #7B8C93",
"j. c #5599AF",
"k. c #6996A9",
"l. c #719BAA",
"z. c #739FB8",
"x. c #76A7B5",
"c. c #4A8492",
"v. c #7DB1C6",
"b. c #7BC2DB",
"n. c #858A84",
"m. c #878888",
"M. c #948E83",
"N. c #928A87",
"B. c #8B948E",
"V. c #93928A",
"C. c #9B968B",
"Z. c #8C8E94",
"A. c #899699",
"S. c #9C9A92",
"D. c #989999",
"F. c #A6978C",
"G. c #A79B93",
"H. c #AAA297",
"J. c #A8A59C",
"K. c #B2A59A",
"L. c #ADA996",
"P. c #849FA9",
"I. c #949DA7",
"U. c #A497A1",
"Y. c #98A3A9",
"T. c #84ADBB",
"R. c #9BABB3",
"E. c #92ADB4",
"W. c #8BB1B9",
"Q. c #96B1B3",
"!. c #A8A8A7",
"~. c #B3ACA4",
"^. c #B5ABA5",
"/. c #ACB2A8",
"(. c #B6B4AD",
"). c #AAB5B3",
"_. c #BBB6B2",
"`. c #BEBAB5",
"'. c #B6B6B5",
"]. c #A0A6BE",
"[. c #C7B59F",
"{. c #C4B5AB",
"}. c #C3BCB4",
"|. c #C4BCBB",
" X c #CCBDB8",
".X c #D2BFAE",
"XX c #B2C3BD",
"oX c #C3C1B8",
"OX c #CBC3BC",
"+X c #CCC5B9",
"@X c #D2C8BD",
"#X c #86B5C7",
"$X c #97BAC8",
"%X c #A8B8C2",
"&X c #B7BEC5",
"*X c #9EC2CE",
"=X c #BBC4C7",
"-X c #B7CCD7",
";X c #AECCD7",
":X c #A7D4E8",
">X c #BADAEA",
",X c #BDE8F9",
"<X c #96D4E9",
"1X c #CCCBC4",
"2X c #C8C7C5",
"3X c #D3CCC4",
"4X c #D9CCC7",
"5X c #D6D2CB",
"6X c #DCD2CC",
"7X c #D3D3C6",
"8X c #C3C8D7",
"9X c #CFD3DA",
"0X c #DCD5D2",
"qX c #DED9D3",
"wX c #D9D8D7",
"eX c #D0CDD6",
"rX c #E6D7CC",
"tX c #E5DBD9",
"yX c #EECEDB",
"uX c #DAE3D6",
"iX c #E4E2DE",
"pX c #EBE5DE",
"aX c #C6D6E3",
"sX c #C9E3EE",
"dX c #DEEBEE",
"fX c #D3EFFE",
"gX c #CDF1FF",
"hX c #EBE4E4",
"jX c #EFEBEB",
"kX c #E8E6E5",
"lX c #F2EEEB",
"zX c #FAEEEE",
"xX c #F7F1EE",
"cX c #E8EBF2",
"vX c #FFEFF4",
"bX c #FFFCFA",
"nX c #F9F6F3",
"mX c #E7F7F3",
"MX c #F2DCE9",
/* pixels */
"+ % . 1 c x l k 3 k l Z i.:XaXaXfX>X:X#X#Xx.x.k.*.A T j.b.W I k ",
"< < w G v x n l 3 O 3 R i.k.W.;X-X-XgX:Xx.l.x.$Xe.F U u.b.j.I D ",
"< u ~ / Q y n b - r ( 6 L k.#X*XdXR.;X$Xx.x.T.W.X.P c.j.<Xx.D S ",
"# 0 ~ ~ m t Q C ! y /  .f.k.k.>XY.R.sX;Xl.l.$XW.w.*.g.b.<Xl.S R ",
"@ : g v d q ^ j j } V ^ #.p.$XY.!.%XsXgXT.i.W.W./.=.f.,X>Xg.e.T.",
"= e e d d d ^ ^ ^ } h } g ~ 2XZ./.=X-XfX$X-.P.E.3.7.P.>X$XY.*XQ.",
"< f e Q Q ! ^ >.' { @.0.+.6.OXC.C.J.m.R.aX-X&Xa.K.:.p.-X8XI.XX&X",
"< ~ i ] / ) } M.<.+.t.9.t.3XG.{..XF.:.Z.9X'.'. X}.Y.-XmXcX2XtXeX",
", f G ;.] :.7.1.;.m.!./.2X_.K.rX}.^.H.~.^.V.(.lXiX(.^.D.1X`.2X_.",
"g Z.,./ q q g ` / ` 1.n.2.} C.3XC.) d N ^ 1.`.bXwXm.m.m.:.] 6.'.",
"g B.&.i 9 9 9 / ' m.6.] d y ` y y : e G / `.rX{.1.1.7.!.!.m.a.!.",
"$ e = 9 $ # w x :.7./ O.3.w.<.X.+.B G _ 8.uXpXrXrX3XN.M.S.! :.2X",
"% % * f # + 1 1 u v / /.XXoXM.J.C.<.X.&.,.2X_.[.[.9.h V ) : V ' ",
"$ , w a w 0 1 4 a K =.!.J.pXrX7X{.L.n.,.&.V.3.[ V C V h : q t N ",
"% $ # < i a 7 7 J F _ I.D.|. XK.}.V.S.XXJ.V.>.^ C q : t s f ` 5.",
"& $ 1 u i u u 6 L J F a.XX@XrX@X!.q.F.+XoX@X1XV...Q G f f H dX=X",
"= = = 9 i 4 7 z L K % y 6X4XtXq.q q m.4X5X7X( - 1.n.<.! ~ Z.cX=X",
"o 9 9 9 w 7 7 6 J F . & 0X4X0XO.    2.3X3X1Xb 3 m.}.S.3.V.9Xd.A.",
"9 s 9 ; < r l x F F   X 0X5X5X[ X X q.4X5XwXx 3 q. X@XL.uXcX).).",
"o ; @ = p H l n z a X : 2X6XrX{ X   q.{.oXuXc - 2.K.G.~.3XjXjXlX",
"# @ @ 2 - r l |  .3.<.0.^.2XyX+.    2. X1XwX&.x y.<.e.y.1XhXtX4X",
"o * X.n./ b & > ) S.^.~.m.!.6X9.X   q.pXkX2Xn.=.B.n o.@._.!.yXF.",
"o * 5.).:.) B @.) 2.r.q.&.7.(.6.    1.tXiX).).8.<.l l <.<.X.V.O.",
"* ; 4.!.:.:.+.0.S.y.>.8.&.K w.<.  $ >.eXlX7XxXm.;.5.uXuXmXB.H | ",
"V t 8.Y.7.M +.0.{ { >.{ P F  .5.! ] D.0XwX1XnXJ.6.S.rX+X(.S.X.w.",
",.d.h.A.7.^ ^ ) B @.) v G 5.D.U.D.|.iXiXiXuXbX!.!.O.O.N N B ` w.",
"_ =.%.Z.7.! ! ..V M e x f &.=.=.2.2XjX0X5XwXnX_.V.<.t.{ V > ) d ",
"F %.%.I.#.g Q z j w z K 4.a.I.Q.^.2X0XqXkXlXxX!.V.3.M.2.0.0.H.w.",
"8 a K I.#.e i 3 D A u.g.&XMXvXhXvXhXhXjXlXnXlXS.1.2.t.F.G.0.C.}.",
"* 8 8 p.4.u + 6 U u.W p.R.kXvXzXjXjXvXbXhXxXvX~.N.q.9.K..XG.r.~.",
". 8 5 L %.$.Y u.a.%X8XaX'.=X2XkXqXeXwX0X0XhX6XD.G.J.K.{.^.t.! j ",
"4 5 D A D J E u.p.D.|.|.1X=XwXyXhXhXiXiXhXtXyX0X4X4X4X@X4X_.6.' "
};
